<?xml version="1.0" standalone="no"?>
<!DOCTYPE svg PUBLIC "-//W3C//DTD SVG 20010904//EN"
 "http://www.w3.org/TR/2001/REC-SVG-20010904/DTD/svg10.dtd">
<svg version="1.0" xmlns="http://www.w3.org/2000/svg"
 width="500.000000pt" height="187.000000pt" viewBox="0 0 500.000000 187.000000"
 preserveAspectRatio="xMidYMid meet">

<g transform="translate(0.000000,187.000000) scale(0.100000,-0.100000)"
fill="#000000" stroke="none">
<path d="M3730 1658 c-54 -59 -94 -327 -88 -598 3 -144 6 -169 23 -200 15 -24
29 -36 49 -38 60 -7 90 62 100 230 8 116 10 125 47 143 80 42 99 10 108 -182
7 -158 16 -189 56 -199 35 -9 51 0 72 38 16 29 18 60 18 243 0 182 -2 214 -18
242 -40 74 -123 87 -209 34 -27 -17 -50 -31 -51 -31 -1 0 -2 48 -3 108 0 117
-14 182 -45 213 -24 24 -34 24 -59 -3z"/>
<path d="M101 1624 c-11 -14 -26 -43 -32 -63 -14 -49 -31 -386 -27 -551 4
-157 18 -200 67 -200 52 0 79 51 88 172 6 73 8 79 37 98 l31 19 36 -79 c66
-141 125 -209 169 -195 54 17 44 91 -35 251 -30 61 -55 113 -55 116 0 2 25 36
55 74 68 84 93 144 77 179 -9 18 -19 25 -41 25 -33 0 -74 -32 -170 -133 -35
-37 -67 -65 -69 -62 -3 3 -6 69 -7 148 -1 119 -4 149 -21 182 -15 32 -25 41
-50 43 -25 2 -36 -3 -53 -24z"/>
<path d="M2151 1624 c-34 -43 -42 -88 -52 -309 -12 -244 -8 -428 11 -468 15
-30 54 -45 79 -30 30 18 53 82 58 161 5 74 7 79 38 99 l32 21 36 -76 c71 -150
122 -211 167 -197 56 18 43 102 -41 266 -27 52 -49 98 -49 101 0 4 20 30 45
59 50 58 95 141 95 174 0 29 -19 45 -53 45 -22 0 -49 -21 -131 -100 l-103
-100 -5 148 c-6 177 -21 225 -74 230 -25 2 -36 -3 -53 -24z"/>
<path d="M4489 1629 c-28 -53 8 -298 43 -287 32 11 58 204 35 268 -15 44 -59
55 -78 19z"/>
<path d="M4272 1624 c-17 -12 -22 -24 -20 -47 3 -30 6 -32 43 -35 47 -3 85 24
85 62 0 38 -65 50 -108 20z"/>
<path d="M4807 1496 c-99 -36 -149 -98 -155 -190 -4 -61 -3 -63 52 -144 31
-46 56 -93 56 -106 0 -29 -25 -52 -80 -71 -62 -22 -80 -41 -80 -85 0 -48 18
-62 84 -68 126 -10 266 114 266 237 0 54 -12 76 -71 132 -48 45 -59 72 -43
113 3 9 33 32 65 52 66 40 81 69 56 108 -24 36 -85 45 -150 22z"/>
<path d="M3315 1466 c-162 -71 -231 -405 -117 -571 32 -47 101 -85 152 -85 41
0 115 32 148 63 53 49 68 121 32 157 -28 28 -41 25 -98 -20 -56 -45 -80 -49
-108 -19 -16 17 -19 37 -19 108 0 76 4 93 30 146 25 49 34 60 55 60 22 0 26
-5 30 -46 7 -59 24 -79 65 -79 25 0 39 7 55 28 19 23 21 36 17 94 -8 115 -65
178 -161 178 -28 -1 -64 -7 -81 -14z"/>
<path d="M1747 1460 c-110 -33 -187 -200 -174 -375 9 -117 65 -222 139 -261
39 -20 126 -18 168 5 86 45 142 173 142 326 1 218 -120 351 -275 305z m97
-200 c17 -29 21 -52 21 -130 0 -99 -13 -143 -48 -164 -15 -9 -23 -6 -42 16
-34 40 -50 128 -37 206 19 114 64 144 106 72z"/>
<path d="M631 1425 c-71 -82 -100 -305 -56 -440 37 -115 136 -178 253 -160 61
9 91 25 135 74 48 53 70 131 71 246 1 143 -32 255 -85 288 -26 16 -67 -1 -85
-35 -15 -28 -15 -43 -4 -135 14 -115 9 -203 -14 -239 -19 -27 -62 -41 -85 -27
-36 23 -43 54 -35 168 4 61 8 143 8 183 1 66 -2 76 -23 93 -32 26 -44 24 -80
-16z"/>
<path d="M2686 1429 c-74 -88 -104 -286 -66 -429 16 -61 66 -127 112 -151 54
-28 166 -32 214 -7 94 50 136 142 138 298 2 153 -29 258 -85 293 -26 16 -67
-1 -85 -35 -14 -28 -15 -43 -5 -112 24 -177 8 -270 -52 -291 -33 -11 -55 0
-75 36 -13 24 -13 52 4 291 6 83 6 87 -19 112 -34 34 -50 33 -81 -5z"/>
<path d="M4271 1438 c-41 -44 -55 -119 -55 -303 0 -174 10 -243 41 -277 22
-25 55 -22 80 5 39 41 48 99 48 312 0 180 -2 204 -20 240 -25 49 -62 58 -94
23z"/>
<path d="M1145 1423 c-30 -30 -35 -63 -35 -241 0 -278 20 -357 91 -357 55 0
70 39 78 203 6 120 10 142 30 175 32 52 63 71 103 63 86 -18 99 -18 123 -2 50
33 24 122 -45 150 -72 29 -132 14 -188 -45 -28 -30 -32 -32 -37 -14 -23 71
-34 85 -69 85 -19 0 -42 -7 -51 -17z"/>
<path d="M2555 322 c-55 -18 -85 -60 -85 -120 0 -37 6 -50 34 -78 26 -26 42
-34 70 -34 80 0 133 58 123 132 -6 46 -29 75 -74 94 -35 15 -38 15 -68 6z m75
-69 c37 -48 10 -115 -46 -115 -56 -1 -85 81 -44 122 28 28 64 25 90 -7z"/>
<path d="M2834 314 c-104 -51 -71 -224 44 -224 65 0 112 44 112 105 0 24 -3
25 -55 25 -48 0 -55 -2 -55 -20 0 -16 7 -20 30 -20 37 0 38 -14 5 -36 -67 -44
-127 62 -69 120 18 18 65 21 81 5 14 -14 33 -3 33 17 0 15 -56 44 -82 44 -7 0
-27 -7 -44 -16z"/>
<path d="M2020 205 l0 -115 53 0 c73 0 101 17 105 62 2 28 -2 40 -18 51 -13 9
-17 17 -11 22 6 3 11 22 11 40 0 43 -20 55 -89 55 l-51 0 0 -115z m88 53 c-2
-13 -10 -23 -18 -23 -8 0 -16 10 -18 23 -3 17 2 22 18 22 16 0 21 -5 18 -22z
m16 -91 c8 -14 8 -20 -4 -27 -22 -14 -40 -12 -46 5 -16 41 27 60 50 22z"/>
<path d="M2268 205 l3 -115 60 0 c52 0 59 2 59 19 0 16 -8 20 -37 23 l-38 3
-3 93 c-3 87 -4 92 -25 92 -22 0 -22 -2 -19 -115z"/>
</g>
</svg>
